# xmcd CD database file
#
# Track frame offsets:
#	150
#	14251
#	28276
#	44591
#	59716
#	72567
#	85998
#	100892
#	117383
#	133602
#	149490
#	167007
#	176943
#	190670
#	205270
#	225521
#	240845
#	257505
#	268938
#	283252
#	299520
#
# Disc length: 4219 seconds
#
# Revision: 0
# Processed by: cddbd v1.5.2PL0 Copyright (c) Steve Scherf et al.
# Submitted via: CDex 1.51
#
DISCID=4c107915
DTITLE=Various Artist - Corrie
DYEAR=1900
DGENRE=Country
TTITLE0=Bosa Nova - Jane McDonald
TTITLE1=Disguised - The Dean Brothers
TTITLE2=Brown Eyed Girl - The Cheap Seats
TTITLE3=Bicycle Waltz - Engelbert Humperdinck
TTITLE4=Blue - LeeAnn Rimes
TTITLE5=Sweet Sweet Smile - Scooter LeE
TTITLE6=Cheek to Cheek - Glen Rogers
TTITLE7=Fly Like a Bird - BoZ Scaggs
TTITLE8=Flying High - Ann Murray
TTITLE9=Forget All Your Yesterdays - Kenny Rogers
TTITLE10=I Walk the Line - Johnny Cash
TTITLE11=Rock Around the Clock - Bill Haley
TTITLE12=Rock and Roll Waltz - Scooter Lee
TTITLE13=So Good is Love - George Strait
TTITLE14=Bird on a Wire - Troy Cassar-Daley
TTITLE15=Yellow Rose - Isla Grant
TTITLE16=An Irish Waltz - Mary Duff
TTITLE17=On a Slow Boat to China - Bette Midler and Barry Manilow
TTITLE18=Smokey Places - Ronnie McDowell
TTITLE19=Strait Dancing - George Strait
TTITLE20=Rivers of Babylon - Boney M
EXTD=
EXTT0=
EXTT1=
EXTT2=
EXTT3=
EXTT4=
EXTT5=
EXTT6=
EXTT7=
EXTT8=
EXTT9=
EXTT10=
EXTT11=
EXTT12=
EXTT13=
EXTT14=
EXTT15=
EXTT16=
EXTT17=
EXTT18=
EXTT19=
EXTT20=
PLAYORDER=
